<svg width="166" height="40" viewBox="0 0 166 40" fill="none" xmlns="http://www.w3.org/2000/svg">
<g clip-path="url(#clip0_745_175)">
<path d="M50.0708 28.6087H61.7416V25.0965H54.2188V11.8672H50.0708V28.6087Z" fill="white" fill-opacity="0.3"/>
<path d="M68.6561 26.2676C66.9922 26.2676 66.1251 24.8159 66.1251 22.6383C66.1251 20.4608 66.9922 18.9857 68.6561 18.9857C70.32 18.9857 71.2106 20.4608 71.2106 22.6383C71.2106 24.8159 70.32 26.2676 68.6561 26.2676ZM68.6796 28.9837C72.5464 28.9837 75.0774 26.2442 75.0774 22.6383C75.0774 19.0325 72.5464 16.293 68.6796 16.293C64.8362 16.293 62.2583 19.0325 62.2583 22.6383C62.2583 26.2442 64.8362 28.9837 68.6796 28.9837Z" fill="white" fill-opacity="0.3"/>
<path d="M81.7704 32.7534C83.5515 32.7534 85.1217 32.3554 86.1763 31.4188C87.1371 30.5525 87.7699 29.2412 87.7699 27.4383V16.6208H84.114V17.9086H84.0671C83.364 16.9017 82.286 16.2695 80.6924 16.2695C77.7161 16.2695 75.6538 18.7515 75.6538 22.2637C75.6538 25.9398 78.1614 27.9534 80.8564 27.9534C82.3094 27.9534 83.2234 27.3681 83.9265 26.572H84.0202V27.7661C84.0202 29.2178 83.3406 30.0608 81.7236 30.0608C80.458 30.0608 79.8253 29.5222 79.6144 28.89H75.9116C76.2866 31.3954 78.466 32.7534 81.7704 32.7534ZM81.747 25.1203C80.3174 25.1203 79.38 23.9495 79.38 22.1466C79.38 20.3203 80.3174 19.1495 81.747 19.1495C83.3406 19.1495 84.1843 20.5076 84.1843 22.1232C84.1843 23.809 83.4109 25.1203 81.747 25.1203Z" fill="white" fill-opacity="0.3"/>
<path d="M95.2875 26.2676C93.6236 26.2676 92.7565 24.8159 92.7565 22.6383C92.7565 20.4608 93.6236 18.9857 95.2875 18.9857C96.9514 18.9857 97.8415 20.4608 97.8415 22.6383C97.8415 24.8159 96.9514 26.2676 95.2875 26.2676ZM95.3109 28.9837C99.1773 28.9837 101.708 26.2442 101.708 22.6383C101.708 19.0325 99.1773 16.293 95.3109 16.293C91.4675 16.293 88.8896 19.0325 88.8896 22.6383C88.8896 26.2442 91.4675 28.9837 95.3109 28.9837Z" fill="white" fill-opacity="0.3"/>
<path d="M102.824 28.6087H106.644V16.6204H102.824V28.6087ZM102.824 14.9579H106.644V11.8672H102.824V14.9579Z" fill="white" fill-opacity="0.3"/>
<path d="M108.301 32.5661H112.121V27.3681H112.168C112.918 28.3749 114.019 28.9837 115.566 28.9837C118.707 28.9837 120.792 26.5017 120.792 22.6149C120.792 19.009 118.847 16.2695 115.66 16.2695C114.019 16.2695 112.848 16.9954 112.027 18.0725H111.957V16.6208H108.301V32.5661ZM114.582 26.0334C112.941 26.0334 112.004 24.6988 112.004 22.7554C112.004 20.812 112.848 19.3368 114.512 19.3368C116.152 19.3368 116.925 20.6949 116.925 22.7554C116.925 24.7925 116.035 26.0334 114.582 26.0334Z" fill="white" fill-opacity="0.3"/>
<path d="M127.012 28.9837C130.152 28.9837 132.472 27.6256 132.472 25.0032C132.472 21.9359 129.988 21.3973 127.879 21.0461C126.355 20.7651 124.996 20.6481 124.996 19.8051C124.996 19.0559 125.723 18.7047 126.66 18.7047C127.715 18.7047 128.441 19.0325 128.582 20.1095H132.097C131.91 17.7447 130.082 16.2695 126.684 16.2695C123.848 16.2695 121.504 17.5808 121.504 20.1095C121.504 22.9193 123.731 23.4812 125.816 23.8325C127.41 24.1134 128.863 24.2305 128.863 25.3076C128.863 26.0803 128.137 26.5017 126.988 26.5017C125.723 26.5017 124.926 25.9164 124.785 24.7222H121.176C121.293 27.3681 123.496 28.9837 127.012 28.9837Z" fill="white" fill-opacity="0.3"/>
<path d="M137.661 28.9606C139.325 28.9606 140.379 28.305 141.246 27.1343H141.317V28.6094H144.973V16.6211H141.153V23.3177C141.153 24.746 140.356 25.7294 139.043 25.7294C137.825 25.7294 137.239 25.0035 137.239 23.6923V16.6211H133.442V24.4884C133.442 27.1577 134.895 28.9606 137.661 28.9606Z" fill="white" fill-opacity="0.3"/>
<path d="M146.635 28.609H150.455V21.889C150.455 20.4608 151.158 19.4539 152.353 19.4539C153.501 19.4539 154.04 20.2032 154.04 21.491V28.609H157.86V21.889C157.86 20.4608 158.54 19.4539 159.759 19.4539C160.907 19.4539 161.446 20.2032 161.446 21.491V28.609H165.266V20.812C165.266 18.1193 163.907 16.2695 161.188 16.2695C159.641 16.2695 158.352 16.9251 157.415 18.3768H157.368C156.759 17.089 155.564 16.2695 153.993 16.2695C152.259 16.2695 151.111 17.089 150.361 18.33H150.291V16.6208H146.635V28.609Z" fill="white" fill-opacity="0.3"/>
<path fill-rule="evenodd" clip-rule="evenodd" d="M19.6285 39.3408C30.4144 39.3408 39.1579 30.6049 39.1579 19.8286C39.1579 9.05231 30.4144 0.316406 19.6285 0.316406C8.84272 0.316406 0.0991211 9.05231 0.0991211 19.8286C0.0991211 30.6049 8.84272 39.3408 19.6285 39.3408ZM22.6429 15.3921C24.3075 13.7288 24.3075 11.0321 22.6429 9.36876C20.9781 7.70546 18.279 7.70546 16.6142 9.36876C14.9495 11.0321 14.9495 13.7288 16.6142 15.3921L19.6285 18.4037L22.6429 15.3921ZM24.069 22.8403C25.7338 24.5036 28.4328 24.5036 30.0976 22.8403C31.7623 21.177 31.7623 18.4803 30.0976 16.8169C28.4328 15.1537 25.7338 15.1537 24.069 16.8169L21.0547 19.8287L24.069 22.8403ZM22.6429 30.2885C24.3075 28.6251 24.3075 25.9285 22.6429 24.2651L19.6285 21.2535L16.6142 24.2651C14.9495 25.9285 14.9495 28.6251 16.6142 30.2885C18.279 31.9518 20.9781 31.9518 22.6429 30.2885ZM9.15943 22.8403C7.4947 21.177 7.4947 18.4803 9.15943 16.8169C10.8242 15.1537 13.5233 15.1537 15.1881 16.8169L18.2024 19.8287L15.1881 22.8403C13.5233 24.5036 10.8242 24.5036 9.15943 22.8403Z" fill="white" fill-opacity="0.3"/>
</g>
<defs>
<clipPath id="clip0_745_175">
<rect width="166" height="40" fill="white"/>
</clipPath>
</defs>
</svg>
