<svg width="92" height="91" viewBox="0 0 92 91" fill="none" xmlns="http://www.w3.org/2000/svg">
<path d="M66.902 8.71547C66.5065 9.00177 66.3955 9.20869 66.298 9.68842C66.2675 10.01 66.3441 10.2009 66.5059 10.4771C66.9003 10.8829 67.3504 11.1075 67.8541 11.3565C68.0213 11.4411 68.1884 11.526 68.3553 11.611C68.4372 11.6527 68.5192 11.6944 68.6036 11.7373C70.8621 12.8984 72.8226 14.4308 74.6425 16.1908C74.769 16.3129 74.8963 16.4341 75.0244 16.5545C75.7765 17.2625 76.4855 18.0075 77.1296 18.8156C77.1963 18.8958 77.263 18.9761 77.3318 19.0588C81.3707 23.9377 84.2537 30.6581 84.1176 37.0717C84.1155 37.1805 84.1155 37.1805 84.1134 37.2914C84.009 42.1056 82.6595 46.8179 79.386 50.483C79.265 50.6186 79.1461 50.7559 79.0271 50.8932C77.6218 52.4964 75.9201 53.7168 73.9948 54.6242C73.9106 54.6649 73.9106 54.6649 73.8246 54.7064C71.0119 56.055 67.8024 56.4993 64.7091 56.4015C64.6505 56.3998 64.5918 56.398 64.5314 56.3962C63.3861 56.3606 62.2293 56.2997 61.1116 56.0313C61.1047 55.9648 61.1047 55.9648 61.0978 55.8969C60.789 52.9008 60.4397 49.9683 59.5851 47.0702C59.5577 46.9772 59.5303 46.8842 59.502 46.7884C58.2915 42.7456 56.3493 39.0249 53.8818 35.6101C53.8456 35.5598 53.8094 35.5095 53.7721 35.4577C53.066 34.4784 52.3132 33.5387 51.5285 32.6213C51.4203 32.4944 51.3131 32.3665 51.2072 32.2377C50.3608 31.2135 49.4518 30.2395 48.4279 29.3919C48.3381 29.3126 48.2487 29.2331 48.1594 29.1534C45.9007 27.1506 43.0121 25.6992 39.9309 25.8777C37.7607 26.0384 35.3731 26.8634 33.8959 28.5405C31.9809 30.9027 31.5887 33.7764 31.8896 36.7393C32.31 40.3291 33.8907 43.6432 36.1604 46.4315C36.3545 46.6701 36.539 46.915 36.7231 47.1614C37.0405 47.5778 37.3878 47.9522 37.7524 48.3269C37.951 48.5328 37.951 48.5328 38.1128 48.7563C38.2527 48.9424 38.3929 49.0876 38.5664 49.2417C38.7753 49.4312 38.9725 49.6233 39.1618 49.8323C39.4527 50.1464 39.772 50.4215 40.0971 50.6994C40.3261 50.8967 40.5495 51.0991 40.7732 51.3024C42.7891 53.089 45.1028 54.4967 47.461 55.7793C47.5296 55.8167 47.5982 55.8541 47.6688 55.8926C50.5629 57.4576 53.6841 58.5768 56.8349 59.4997C55.7824 64.4321 53.5898 68.7456 49.9843 72.2951C49.9247 72.3545 49.8651 72.4138 49.8037 72.4749C49.363 72.9031 48.8815 73.27 48.3895 73.6369C48.2977 73.7067 48.2059 73.7766 48.1141 73.8464C44.2971 76.7333 39.3246 78.3412 34.5297 78.2206C34.4563 78.2189 34.383 78.2173 34.3074 78.2155C32.0276 78.1639 32.0276 78.1639 29.7787 77.814C29.6927 77.7951 29.6067 77.7762 29.5182 77.7568C27.5931 77.3247 25.7796 76.6779 24.0345 75.758C23.9342 75.7059 23.9342 75.7059 23.8319 75.6527C22.2012 74.7973 20.683 73.731 19.3081 72.5063C19.2645 72.4679 19.2209 72.4296 19.176 72.3901C18.0929 71.4356 17.0404 70.4275 16.1342 69.3018C15.1491 68.09 15.1491 68.09 14.4462 67.998C13.8976 68.0255 13.4676 68.1972 13.0886 68.6008C12.7635 68.9818 12.7264 69.3673 12.7642 69.8535C12.965 70.4886 13.4124 70.9658 13.8292 71.4727C13.982 71.6616 14.1265 71.8565 14.2716 72.0514C14.957 72.9455 15.7302 73.7715 16.4996 74.5932C16.5501 74.6473 16.6006 74.7013 16.6526 74.757C16.9996 75.1246 17.361 75.472 17.7353 75.8116C17.8121 75.8815 17.8121 75.8815 17.8905 75.9527C20.2937 78.1214 22.9974 79.8375 25.9997 81.0521C26.0654 81.0788 26.1311 81.1054 26.1987 81.1329C32.0097 83.4566 38.3804 83.0732 44.0857 80.6352C46.1101 79.7566 48.0274 78.724 49.8276 77.4429C49.8804 77.4056 49.9333 77.3683 49.9877 77.3299C50.639 76.869 51.2501 76.3748 51.847 75.8456C52.0457 75.6706 52.2466 75.5012 52.4527 75.335C52.9558 74.9246 53.4192 74.4762 53.8563 73.9963C53.9866 73.8534 54.1186 73.712 54.2513 73.5713C57.4181 70.1944 60.5426 65.1023 60.6529 60.352C60.7213 60.3546 60.7897 60.3573 60.8602 60.36C61.5171 60.385 62.174 60.4087 62.8309 60.431C63.1684 60.4426 63.5058 60.4545 63.8432 60.4676C65.9798 60.5502 68.0857 60.5407 70.2016 60.1775C70.3588 60.1511 70.3588 60.1511 70.5192 60.124C74.2853 59.4696 77.5143 57.8357 80.3533 55.3085C80.4391 55.2328 80.4391 55.2328 80.5266 55.1556C80.9578 54.764 81.3293 54.3212 81.7054 53.8775C81.7808 53.79 81.8562 53.7026 81.9316 53.6151C82.8244 52.5725 83.5852 51.4647 84.2687 50.2752C84.3117 50.2012 84.3117 50.2012 84.3555 50.1258C85.937 47.385 86.8173 44.3263 87.2437 41.2057C87.2585 41.1044 87.2585 41.1044 87.2737 41.001C87.3912 40.1104 87.4062 39.2101 87.434 38.3132C87.4368 38.2239 87.4396 38.1346 87.4424 38.0427C87.484 36.63 87.475 35.2518 87.3042 33.8468C87.2934 33.7541 87.2826 33.6614 87.2715 33.5659C86.4473 26.7007 83.3445 20.5554 78.6607 15.5345C78.5921 15.4605 78.5236 15.3866 78.4529 15.3103C77.9793 14.8063 77.4787 14.3507 76.952 13.903C76.8499 13.8122 76.748 13.7211 76.6466 13.6295C75.8118 12.8838 74.9218 12.2327 73.9959 11.6048C73.909 11.5457 73.909 11.5457 73.8204 11.4855C68.6113 7.98027 68.6113 7.98027 66.902 8.71547ZM47.4569 33.9168C47.5204 33.9838 47.5838 34.0508 47.6492 34.1199C48.0288 34.5245 48.3894 34.9389 48.7365 35.3716C48.8066 35.4573 48.8768 35.5429 48.9469 35.6285C53.0161 40.6758 57.5566 48.5563 57.1277 55.2557C56.3765 55.1153 55.6693 54.8507 54.9552 54.5864C54.8913 54.5629 54.8274 54.5393 54.7616 54.5151C50.136 52.8034 45.8777 50.299 42.2501 46.9514C42.1934 46.8997 42.1368 46.848 42.0785 46.7947C41.9222 46.651 41.7677 46.5057 41.6138 46.3595C41.5468 46.2961 41.4797 46.2327 41.4107 46.1674C40.9139 45.6909 40.4348 45.1996 39.9622 44.6991C39.9063 44.6401 39.8504 44.5811 39.7929 44.5203C39.4321 44.1357 39.0934 43.7382 38.7618 43.3284C38.685 43.2365 38.6082 43.1447 38.5312 43.053C37.98 42.3894 37.4954 41.7 37.0455 40.9641C36.9723 40.8447 36.8971 40.7265 36.8213 40.6087C36.1994 39.5901 35.8255 38.3604 35.6774 37.1823C35.6687 37.1243 35.6599 37.0662 35.6508 37.0064C35.3651 34.7843 36.2098 32.2461 37.5335 30.4744C38.1295 29.7412 38.8276 29.3356 39.7641 29.2099C42.8291 29.1707 45.5134 31.8613 47.4569 33.9168Z" fill="#A7AABB"/>
<path d="M7.66759 62.4934C7.32675 62.7972 7.14239 63.0095 7.11029 63.4811C7.10809 63.5408 7.10588 63.6004 7.10361 63.6618C7.10029 63.7268 7.09697 63.7918 7.09355 63.8587C7.08364 64.0793 7.07702 64.2998 7.07107 64.5205C7.0686 64.5977 7.06612 64.6749 7.06356 64.7545C7.0158 66.4303 7.14171 68.0926 7.27957 69.7612C7.28478 69.8246 7.28998 69.8881 7.29534 69.9535C7.80557 76.1507 7.80557 76.1507 9.03297 77.3133C9.49287 77.677 9.89514 77.9121 10.4863 77.9301C10.9483 77.8648 11.2269 77.7095 11.566 77.3904C12.3436 76.1877 11.875 74.4187 11.7017 73.1008C11.6749 72.892 11.6482 72.6832 11.6216 72.4744C11.5519 71.931 11.4811 71.3877 11.4097 70.8445C11.3665 70.5151 11.3235 70.1857 11.2806 69.8562C11.1501 68.8542 11.0186 67.8523 10.885 66.8506C10.8687 66.7276 10.8687 66.7276 10.8521 66.6022C10.842 66.527 10.8319 66.4518 10.8215 66.3743C10.8128 66.3092 10.8041 66.244 10.7952 66.1769C10.769 66.0054 10.735 65.8376 10.696 65.6686C12.5071 65.7003 14.3116 65.8231 16.1185 65.9426C16.4426 65.9639 16.7666 65.9849 17.0907 66.0059C17.4081 66.0265 17.7255 66.0472 18.0429 66.0679C18.192 66.0777 18.3411 66.0874 18.4901 66.0971C18.6997 66.1108 18.9093 66.1246 19.1189 66.1385C19.1856 66.1429 19.2522 66.1472 19.3209 66.1517C19.6632 66.1746 20.0046 66.2018 20.346 66.2355C20.4153 66.2421 20.4846 66.2487 20.556 66.2555C20.6864 66.2682 20.8167 66.2817 20.9469 66.2962C21.5777 66.3569 22.1138 66.2635 22.6307 65.8683C22.9205 65.5395 22.9904 65.1635 22.9924 64.7343C22.9073 64.3885 22.8328 64.2134 22.5623 63.981C22.2244 63.7769 21.9106 63.6875 21.5293 63.5959C21.453 63.5769 21.3767 63.5579 21.2981 63.5384C20.65 63.3803 19.999 63.2334 19.3473 63.0909C19.1871 63.0558 19.0269 63.0203 18.8668 62.9847C16.9764 62.5809 15.0588 62.3908 13.1362 62.2211C12.8977 62.1999 12.6593 62.1779 12.421 62.1559C12.1863 62.1344 11.9515 62.1132 11.7168 62.0922C11.5553 62.0777 11.3938 62.0629 11.2323 62.0481C8.59292 61.817 8.59292 61.817 7.66759 62.4934Z" fill="#A7AABB"/>
</svg>
