<svg width="60" height="60" viewBox="0 0 60 60" fill="none" xmlns="http://www.w3.org/2000/svg">
<path d="M12.8569 57.8583C18.7742 57.8583 23.5711 53.0613 23.5711 47.144C23.5711 41.2266 18.7742 36.4297 12.8569 36.4297C6.93953 36.4297 2.14258 41.2266 2.14258 47.144C2.14258 53.0613 6.93953 57.8583 12.8569 57.8583Z" stroke="white" stroke-width="1.5" stroke-linecap="round" stroke-linejoin="round"/>
<path d="M23.5707 12.8576V6.429C23.5707 5.29236 23.1192 4.20227 22.3155 3.39854C21.5117 2.59482 20.4217 2.14329 19.285 2.14329H14.2279C13.2192 2.12494 12.2364 2.46303 11.4524 3.09802C10.6685 3.73301 10.1337 4.62421 9.94216 5.61472L2.35645 45.0004" stroke="white" stroke-width="1.5" stroke-linecap="round" stroke-linejoin="round"/>
<path d="M19.2852 23.5723H40.7137" stroke="white" stroke-width="1.5" stroke-linecap="round" stroke-linejoin="round"/>
<path d="M23.5713 34.2871V47.1443" stroke="white" stroke-width="1.5" stroke-linecap="round" stroke-linejoin="round"/>
<path d="M47.143 57.8583C53.0603 57.8583 57.8573 53.0613 57.8573 47.144C57.8573 41.2266 53.0603 36.4297 47.143 36.4297C41.2257 36.4297 36.4287 41.2266 36.4287 47.144C36.4287 53.0613 41.2257 57.8583 47.143 57.8583Z" stroke="white" stroke-width="1.5" stroke-linecap="round" stroke-linejoin="round"/>
<path d="M36.4287 12.8576V6.429C36.4287 5.29236 36.8802 4.20227 37.684 3.39854C38.4877 2.59482 39.5778 2.14329 40.7144 2.14329H45.7716C46.7803 2.12494 47.7631 2.46303 48.547 3.09802C49.331 3.73301 49.8658 4.62421 50.0573 5.61472L57.7287 45.0004" stroke="white" stroke-width="1.5" stroke-linecap="round" stroke-linejoin="round"/>
<path d="M36.4287 34.2871V47.1443" stroke="white" stroke-width="1.5" stroke-linecap="round" stroke-linejoin="round"/>
</svg>
