<svg width="60" height="60" viewBox="0 0 60 60" fill="none" xmlns="http://www.w3.org/2000/svg">
<path d="M45.6004 6.59961H14.4004C13.6811 6.61936 12.9766 6.80811 12.3437 7.15059C11.7109 7.49307 11.1675 7.97967 10.7576 8.57104L2.95757 19.371C2.37839 20.1895 2.08914 21.1779 2.13572 22.1795C2.18231 23.1811 2.56206 24.1384 3.21472 24.8996L26.6147 51.8568C27.0153 52.3729 27.5287 52.7907 28.1155 53.0781C28.7023 53.3655 29.347 53.5149 30.0004 53.5149C30.6538 53.5149 31.2986 53.3655 31.8854 53.0781C32.4722 52.7907 32.9855 52.3729 33.3861 51.8568L56.7861 24.8996C57.4388 24.1384 57.8186 23.1811 57.8651 22.1795C57.9117 21.1779 57.6225 20.1895 57.0433 19.371L49.2433 8.57104C48.8333 7.97967 48.29 7.49307 47.6571 7.15059C47.0243 6.80811 46.3197 6.61936 45.6004 6.59961V6.59961Z" stroke="white" stroke-width="1.5" stroke-linecap="round" stroke-linejoin="round"/>
<path d="M27.7716 6.55664L17.3145 22.7566L30.0002 53.3995" stroke="white" stroke-width="1.5" stroke-linecap="round" stroke-linejoin="round"/>
<path d="M32.3571 6.55664L42.7714 22.7566L30 53.3995" stroke="white" stroke-width="1.5" stroke-linecap="round" stroke-linejoin="round"/>
<path d="M2.22852 22.7559H57.7714" stroke="white" stroke-width="1.5" stroke-linecap="round" stroke-linejoin="round"/>
</svg>
