<svg width="60" height="60" viewBox="0 0 60 60" fill="none" xmlns="http://www.w3.org/2000/svg">
<path d="M22.414 9.64258L24.2569 4.88544C24.5677 4.08 25.1145 3.38719 25.8257 2.89777C26.5368 2.40835 27.3793 2.14513 28.2426 2.14258H31.7569C32.6202 2.14513 33.4626 2.40835 34.1738 2.89777C34.885 3.38719 35.4318 4.08 35.7426 4.88544L37.5854 9.64258L43.8426 13.2426L48.8997 12.4711C49.7418 12.3569 50.5988 12.4955 51.362 12.8694C52.1251 13.2433 52.7598 13.8357 53.1854 14.5711L54.8997 17.5711C55.339 18.3184 55.5414 19.1812 55.4802 20.0458C55.419 20.9104 55.097 21.7361 54.5569 22.414L51.4283 26.3997V33.5997L54.6426 37.5854C55.1828 38.2633 55.5047 39.089 55.5659 39.9536C55.6271 40.8182 55.4247 41.6811 54.9854 42.4283L53.2712 45.4283C52.8455 46.1638 52.2108 46.7561 51.4477 47.13C50.6846 47.504 49.8275 47.6426 48.9854 47.5283L43.9283 46.7569L37.6712 50.3569L35.8283 55.114C35.5175 55.9194 34.9707 56.6122 34.2595 57.1017C33.5483 57.5911 32.7059 57.8543 31.8426 57.8569H28.2426C27.3793 57.8543 26.5368 57.5911 25.8257 57.1017C25.1145 56.6122 24.5677 55.9194 24.2569 55.114L22.414 50.3569L16.1569 46.7569L11.0997 47.5283C10.2577 47.6426 9.40061 47.504 8.63751 47.13C7.8744 46.7561 7.23968 46.1638 6.81401 45.4283L5.09973 42.4283C4.66045 41.6811 4.45806 40.8182 4.51927 39.9536C4.58048 39.089 4.90241 38.2633 5.44258 37.5854L8.57116 33.5997V26.3997L5.35687 22.414C4.8167 21.7361 4.49477 20.9104 4.43355 20.0458C4.37234 19.1812 4.57473 18.3184 5.01401 17.5711L6.7283 14.5711C7.15397 13.8357 7.78869 13.2433 8.55179 12.8694C9.3149 12.4955 10.1719 12.3569 11.014 12.4711L16.0712 13.2426L22.414 9.64258ZM21.4283 29.9997C21.4283 31.695 21.931 33.3522 22.8728 34.7617C23.8147 36.1713 25.1534 37.2699 26.7196 37.9187C28.2858 38.5674 30.0092 38.7372 31.6719 38.4065C33.3346 38.0757 34.8619 37.2594 36.0606 36.0606C37.2594 34.8619 38.0757 33.3346 38.4065 31.6719C38.7372 30.0092 38.5674 28.2858 37.9187 26.7196C37.2699 25.1534 36.1713 23.8147 34.7618 22.8728C33.3522 21.931 31.695 21.4283 29.9997 21.4283C27.7264 21.4283 25.5463 22.3314 23.9388 23.9388C22.3314 25.5463 21.4283 27.7264 21.4283 29.9997V29.9997Z" stroke="white" stroke-width="1.5" stroke-linecap="round" stroke-linejoin="round"/>
</svg>
