<svg width="30" height="30" viewBox="0 0 30 30" fill="none" xmlns="http://www.w3.org/2000/svg">
<path d="M24.6451 10.7151C24.6451 16.0508 15.0022 28.9294 15.0022 28.9294C15.0022 28.9294 5.35938 16.0508 5.35938 10.7151C5.35938 8.15768 6.37532 5.70498 8.1837 3.89659C9.99209 2.08821 12.4448 1.07227 15.0022 1.07227C17.5597 1.07227 20.0124 2.08821 21.8208 3.89659C23.6292 5.70498 24.6451 8.15768 24.6451 10.7151V10.7151Z" stroke="white" stroke-width="1.5" stroke-linecap="round" stroke-linejoin="round"/>
<path d="M15.0033 13.9286C16.7785 13.9286 18.2176 12.4895 18.2176 10.7143C18.2176 8.93908 16.7785 7.5 15.0033 7.5C13.2281 7.5 11.7891 8.93908 11.7891 10.7143C11.7891 12.4895 13.2281 13.9286 15.0033 13.9286Z" stroke="white" stroke-width="1.5" stroke-linecap="round" stroke-linejoin="round"/>
</svg>
