<svg width="30" height="30" viewBox="0 0 30 30" fill="none" xmlns="http://www.w3.org/2000/svg">
<g clip-path="url(#clip0_716_3814)">
<path d="M18.7749 27.8551C20.0945 28.7065 21.667 29.0775 23.228 28.9057C24.789 28.734 26.2433 28.0301 27.3463 26.9123L28.3106 25.9694C28.7334 25.537 28.9701 24.9563 28.9701 24.3515C28.9701 23.7468 28.7334 23.1661 28.3106 22.7337L24.2177 18.6837C23.789 18.2623 23.2118 18.0261 22.6106 18.0261C22.0094 18.0261 21.4322 18.2623 21.0035 18.6837C20.571 19.1064 19.9903 19.3431 19.3856 19.3431C18.7809 19.3431 18.2002 19.1064 17.7677 18.6837L11.3392 12.2551C11.1247 12.0438 10.9544 11.7919 10.8382 11.5142C10.7219 11.2364 10.6621 10.9383 10.6621 10.6373C10.6621 10.3362 10.7219 10.0381 10.8382 9.76034C10.9544 9.48259 11.1247 9.23073 11.3392 9.01939C11.7606 8.5906 11.9967 8.01345 11.9967 7.41225C11.9967 6.81105 11.7606 6.2339 11.3392 5.80511L7.26775 1.73368C6.83533 1.31092 6.25462 1.07422 5.64989 1.07422C5.04516 1.07422 4.46445 1.31092 4.03203 1.73368L3.08918 2.69796C1.97135 3.80098 1.26739 5.25525 1.09568 6.81625C0.923974 8.37725 1.29498 9.94977 2.14632 11.2694C6.58213 17.8067 12.2262 23.4362 18.7749 27.8551Z" stroke="white" stroke-width="1.5" stroke-linecap="round" stroke-linejoin="round"/>
</g>
<defs>
<clipPath id="clip0_716_3814">
<rect width="30" height="30" fill="white"/>
</clipPath>
</defs>
</svg>
