<svg width="60" height="60" viewBox="0 0 60 60" fill="none" xmlns="http://www.w3.org/2000/svg">
<path d="M36.4293 21.4289C38.7962 21.4289 40.715 19.5101 40.715 17.1431C40.715 14.7762 38.7962 12.8574 36.4293 12.8574C34.0623 12.8574 32.1436 14.7762 32.1436 17.1431C32.1436 19.5101 34.0623 21.4289 36.4293 21.4289Z" stroke="white" stroke-width="1.5" stroke-linecap="round" stroke-linejoin="round"/>
<path d="M19.2864 42.856C20.4699 42.856 21.4293 41.8966 21.4293 40.7132C21.4293 39.5297 20.4699 38.5703 19.2864 38.5703C18.1029 38.5703 17.1436 39.5297 17.1436 40.7132C17.1436 41.8966 18.1029 42.856 19.2864 42.856Z" stroke="white" stroke-width="1.5" stroke-linecap="round" stroke-linejoin="round"/>
<path d="M19.2857 27.8566C21.6526 27.8566 23.5714 25.9378 23.5714 23.5709C23.5714 21.2039 21.6526 19.2852 19.2857 19.2852C16.9188 19.2852 15 21.2039 15 23.5709C15 25.9378 16.9188 27.8566 19.2857 27.8566Z" stroke="white" stroke-width="1.5" stroke-linecap="round" stroke-linejoin="round"/>
<path d="M40.8004 52.6283C40.7526 51.797 40.4637 50.9976 39.969 50.3279C39.4743 49.6581 38.7952 49.1469 38.0147 48.8569C36.0763 48.2198 34.4287 46.9121 33.3682 45.1689C32.3077 43.4257 31.9039 41.3614 32.2293 39.3471C32.5547 37.3328 33.5879 35.5006 35.1433 34.18C36.6988 32.8594 38.6743 32.137 40.7147 32.1426H48.729C50.1035 32.1464 51.4588 31.8196 52.6806 31.1897C53.9023 30.5598 54.9547 29.6454 55.7489 28.5234C56.543 27.4015 57.0557 26.1051 57.2437 24.7434C57.4317 23.3818 57.2894 21.9949 56.829 20.6997C55.1244 15.8867 52.1297 11.6348 48.1723 8.4085C44.2148 5.18218 39.4468 3.1056 34.3891 2.40561C29.3313 1.70563 24.1785 2.40917 19.4935 4.43938C14.8086 6.46959 10.7717 9.74836 7.82402 13.9175C4.87631 18.0866 3.13113 22.9857 2.77916 28.0795C2.4272 33.1732 3.48198 38.2658 5.82827 42.8007C8.17456 47.3356 11.7221 51.1385 16.0833 53.7937C20.4445 56.449 25.4516 57.8546 30.5575 57.8569C33.0791 57.8639 35.5892 57.5177 38.0147 56.8283C38.9055 56.5787 39.677 56.0172 40.1883 55.2462C40.6997 54.4752 40.9169 53.5461 40.8004 52.6283V52.6283Z" stroke="white" stroke-width="1.5" stroke-linecap="round" stroke-linejoin="round"/>
</svg>
